<svg viewBox="0 0 200 200" xmlns="http://www.w3.org/2000/svg">
  <defs>
    <!-- Gradient for the rose petals - dark, ravaged pink -->
    <radialGradient id="petalGrad" cx="50%" cy="30%" r="70%">
      <stop offset="0%" style="stop-color:#8B2635;stop-opacity:1" />
      <stop offset="40%" style="stop-color:#A0394A;stop-opacity:1" />
      <stop offset="80%" style="stop-color:#6B1E2F;stop-opacity:1" />
      <stop offset="100%" style="stop-color:#2D0A12;stop-opacity:1" />
    </radialGradient>
    
    <!-- Gradient for inner petals -->
    <radialGradient id="innerPetal" cx="40%" cy="20%" r="60%">
      <stop offset="0%" style="stop-color:#B85A6B;stop-opacity:1" />
      <stop offset="60%" style="stop-color:#7A2D3D;stop-opacity:1" />
      <stop offset="100%" style="stop-color:#3D151F;stop-opacity:1" />
    </radialGradient>
    
    <!-- Thorn gradient -->
    <linearGradient id="thornGrad" x1="0%" y1="0%" x2="100%" y2="100%">
      <stop offset="0%" style="stop-color:#2D0A12;stop-opacity:1" />
      <stop offset="100%" style="stop-color:#5C1A26;stop-opacity:1" />
    </linearGradient>
    
    <!-- Stem gradient -->
    <linearGradient id="stemGrad" x1="0%" y1="0%" x2="100%" y2="0%">
      <stop offset="0%" style="stop-color:#1A3B1A;stop-opacity:1" />
      <stop offset="50%" style="stop-color:#2D5A2D;stop-opacity:1" />
      <stop offset="100%" style="stop-color:#0F2F0F;stop-opacity:1" />
    </linearGradient>
  </defs>
  
  <!-- Stem -->
  <path d="M100 180 Q95 150 98 120 Q102 90 100 60" 
        stroke="url(#stemGrad)" 
        stroke-width="6" 
        fill="none"/>
  
  <!-- Thorns -->
  <path d="M95 140 L88 135 L92 142 Z" fill="url(#thornGrad)"/>
  <path d="M105 120 L112 115 L108 122 Z" fill="url(#thornGrad)"/>
  <path d="M93 100 L86 95 L90 102 Z" fill="url(#thornGrad)"/>
  
  <!-- Outer petals (ravaged edges) -->
  <path d="M100 80 Q75 70 60 85 Q55 95 65 105 Q80 110 100 100 Z" 
        fill="url(#petalGrad)" 
        opacity="0.9"/>
  
  <path d="M100 80 Q125 70 140 85 Q145 95 135 105 Q120 110 100 100 Z" 
        fill="url(#petalGrad)" 
        opacity="0.9"/>
  
  <path d="M100 100 Q85 85 70 100 Q65 115 75 125 Q90 130 100 120 Z" 
        fill="url(#petalGrad)" 
        opacity="0.8"/>
  
  <path d="M100 100 Q115 85 130 100 Q135 115 125 125 Q110 130 100 120 Z" 
        fill="url(#petalGrad)" 
        opacity="0.8"/>
  
  <path d="M100 120 Q80 110 65 125 Q60 140 70 150 Q85 155 100 145 Z" 
        fill="url(#petalGrad)" 
        opacity="0.7"/>
  
  <path d="M100 120 Q120 110 135 125 Q140 140 130 150 Q115 155 100 145 Z" 
        fill="url(#petalGrad)" 
        opacity="0.7"/>
  
  <!-- Inner petals (more refined) -->
  <path d="M100 95 Q85 90 75 100 Q80 110 90 112 Q95 108 100 105 Z" 
        fill="url(#innerPetal)" 
        opacity="0.9"/>
  
  <path d="M100 95 Q115 90 125 100 Q120 110 110 112 Q105 108 100 105 Z" 
        fill="url(#innerPetal)" 
        opacity="0.9"/>
  
  <path d="M100 105 Q90 100 80 110 Q85 120 95 122 Q98 118 100 115 Z" 
        fill="url(#innerPetal)" 
        opacity="0.8"/>
  
  <path d="M100 105 Q110 100 120 110 Q115 120 105 122 Q102 118 100 115 Z" 
        fill="url(#innerPetal)" 
        opacity="0.8"/>
  
  <!-- Center bud -->
  <circle cx="100" cy="105" r="8" fill="url(#innerPetal)" opacity="0.9"/>
  <circle cx="100" cy="105" r="4" fill="#2D0A12" opacity="0.6"/>
  
  <!-- Subtle highlights for depth -->
  <path d="M85 95 Q90 90 95 95" 
        stroke="#B85A6B" 
        stroke-width="1" 
        fill="none" 
        opacity="0.4"/>
  
  <path d="M105 95 Q110 90 115 95" 
        stroke="#B85A6B" 
        stroke-width="1" 
        fill="none" 
        opacity="0.4"/>
</svg>